# xmcd
#
# Track frame offsets: 
#        150
#        17159
#        33508
#        52099
#        69242
#        84991
#        102807
#        121177
#        135485
#        152162
#
# Disc length: 2276 seconds
#
# Revision: 0
# Processed by: cddbd v1.5.2PL0 Copyright (c) Steve Scherf et al.
# Submitted via: ExactAudioCopy v0.99pb4
#
DISCID=7808e20a
DTITLE=มนต์สิทธิ์ คำสร้อย - ห่มฟางต่างผ้า
DYEAR=2009
DGENRE=Country
TTITLE0=ห่มฟางต่างผ้า
TTITLE1=สั่งนาง
TTITLE2=สัญญาเมื่อสายัณห์
TTITLE3=โปรดพิจารณา
TTITLE4=ทหารเกณฑ์คนจน
TTITLE5=น้ำตาคนเลว
TTITLE6=มนต์รักสองฝั่งโขง
TTITLE7=เดือนครึ่งดวง
TTITLE8=ยังรักเสมอ
TTITLE9=จดหมายฉบับสุดท้าย
EXTD=
EXTT0=
EXTT1=
EXTT2=
EXTT3=
EXTT4=
EXTT5=
EXTT6=
EXTT7=
EXTT8=
EXTT9=
PLAYORDER=
